<?xml version="1.0" encoding="utf-8"?><svg xmlns="http://www.w3.org/2000/svg" xmlns:xlink="http://www.w3.org/1999/xlink" width="1325" height="658" preserveAspectRatio="xMidYMid" viewBox="0 0 1325 658" style="z-index:1;margin-right:-2px;display:block;background-repeat-y:initial;background-repeat-x:initial;animation-play-state:paused" ><g transform="" style="animation-play-state:paused" ><g transform="translate(1221.8672506450848,-25.98525167358531) scale(100)" opacity="0.9" style="transform:matrix(100, 0, 0, 100, 1221.87, -25.9853);opacity:0.9;animation-play-state:paused" ><path d="M5.929375 0 C5.929375 1.52375 7.101722221579457 2.3407062909834613 6.339847221579457 3.6603124999999994 S4.284293709016539 4.373114378564356 2.9646875000000006 5.134989378564356 S1.5237500000000004 7.320625 4.482589987004046e-16 7.320625 S-1.6450812909834605 5.896864378564357 -2.964687499999999 5.134989378564357 S-5.577972221579454 4.97991870901654 -6.339847221579455 3.660312500000002 S-5.929375 1.5237500000000006 -5.929375 7.261390114694338e-16 S-7.101722221579457 -2.340706290983459 -6.339847221579457 -3.6603124999999976 S-4.284293709016541 -4.373114378564354 -2.964687500000003 -5.134989378564355 S-1.5237500000000013 -7.320625 -1.3447769961012138e-15 -7.320625 S1.6450812909834571 -5.8968643785643575 2.964687499999996 -5.1349893785643586 S5.577972221579453 -4.979918709016541 6.339847221579454 -3.660312500000003 S5.929375 -1.5237500000000015 5.929375 -1.4522780229388675e-15" fill="#7300ff" stroke-width="0" transform="matrix(1,0,0,1,0,0)" style="transform:matrix(1, 0, 0, 1, 0, 0);animation-play-state:paused" ></path></g>
<g transform="translate(1333.7407007741022,-96.98230200830233) scale(100)" opacity="0.9" style="transform:matrix(100, 0, 0, 100, 1333.74, -96.9823);opacity:0.9;animation-play-state:paused" ><path d="M7.1152500000000005 0 C7.1152500000000005 1.8284999999999998 8.522066665895348 2.8088475491801534 7.607816665895348 4.3923749999999995 S5.141152450819847 5.247737254277228 3.557625000000001 6.161987254277228 S1.8285000000000002 8.78475 5.379107984404856e-16 8.78475 S-1.9740975491801525 7.076237254277227 -3.5576249999999985 6.161987254277228 S-6.6935666658953465 5.975902450819849 -7.6078166658953466 4.392375000000003 S-7.1152500000000005 1.8285000000000007 -7.1152500000000005 8.713668137633206e-16 S-8.522066665895348 -2.8088475491801512 -7.607816665895349 -4.392374999999998 S-5.141152450819849 -5.247737254277226 -3.5576250000000034 -6.161987254277227 S-1.8285000000000013 -8.78475 -1.6137323953214567e-15 -8.78475 S1.9740975491801487 -7.076237254277229 3.5576249999999954 -6.16198725427723 S6.693566665895345 -5.9759024508198495 7.607816665895346 -4.392375000000004 S7.11525 -1.8285000000000016 7.1152500000000005 -1.7427336275266412e-15" fill="#7300ff" stroke-width="0" transform="matrix(1,0,0,1,0,0)" style="transform:matrix(1, 0, 0, 1, 0, 0);animation-play-state:paused" ></path></g>
<g transform="translate(1602.2369810837426,-267.3752228116233) scale(100)" opacity="0.9" style="transform:matrix(100, 0, 0, 100, 1602.24, -267.375);opacity:0.9;animation-play-state:paused" ><path d="M9.961350000000001 0 C9.961350000000001 2.5599 11.930893332253486 3.932386568852215 10.650943332253487 6.149324999999999 S7.197613431147786 7.3468321559881185 4.9806750000000015 8.626782155988119 S2.5599000000000007 12.29865 7.530751178166798e-16 12.29865 S-2.7637365688522144 9.906732155988118 -4.980674999999999 8.626782155988119 S-9.370993332253484 8.36626343114779 -10.650943332253485 6.149325000000005 S-9.961350000000001 2.559900000000001 -9.961350000000001 1.219913539268649e-15 S-11.930893332253488 -3.9323865688522117 -10.650943332253489 -6.149324999999997 S-7.197613431147789 -7.346832155988116 -4.980675000000005 -8.626782155988117 S-2.559900000000002 -12.29865 -2.2592253534500393e-15 -12.29865 S2.763736568852209 -9.90673215598812 4.980674999999994 -8.626782155988122 S9.370993332253482 -8.36626343114779 10.650943332253483 -6.1493250000000055 S9.961350000000001 -2.559900000000002 9.961350000000001 -2.439827078537298e-15" fill="#7300ff" stroke-width="0" transform="matrix(1,0,0,1,0,0)" style="transform:matrix(1, 0, 0, 1, 0, 0);animation-play-state:paused" ></path></g></g></svg>